<mxfile host="app.diagrams.net" agent="Mozilla/5.0 (Windows NT 10.0; Win64; x64) AppleWebKit/537.36 (KHTML, like Gecko) Chrome/126.0.0.0 Safari/537.36 OPR/112.0.0.0" version="24.7.5">
  <diagram name="PÃ¡gina-1" id="WROzz1zBh4wCcs4o05N5">
    <mxGraphModel dx="1380" dy="756" grid="1" gridSize="10" guides="1" tooltips="1" connect="1" arrows="1" fold="1" page="1" pageScale="1" pageWidth="827" pageHeight="1169" math="0" shadow="0">
      <root>
        <mxCell id="0" />
        <mxCell id="1" parent="0" />
        <mxCell id="r_4Iz4pL5gPp644gcN3Q-35" style="edgeStyle=orthogonalEdgeStyle;rounded=0;orthogonalLoop=1;jettySize=auto;html=1;entryX=0.5;entryY=1;entryDx=0;entryDy=0;dashed=1;" edge="1" parent="1" source="r_4Iz4pL5gPp644gcN3Q-1" target="r_4Iz4pL5gPp644gcN3Q-18">
          <mxGeometry relative="1" as="geometry" />
        </mxCell>
        <mxCell id="r_4Iz4pL5gPp644gcN3Q-1" value="ReprodutorMusical" style="swimlane;fontStyle=1;align=center;verticalAlign=top;childLayout=stackLayout;horizontal=1;startSize=26;horizontalStack=0;resizeParent=1;resizeParentMax=0;resizeLast=0;collapsible=1;marginBottom=0;whiteSpace=wrap;html=1;" vertex="1" parent="1">
          <mxGeometry x="324" y="260" width="160" height="120" as="geometry">
            <mxRectangle x="110" y="140" width="140" height="30" as="alternateBounds" />
          </mxGeometry>
        </mxCell>
        <mxCell id="r_4Iz4pL5gPp644gcN3Q-3" value="" style="line;strokeWidth=1;fillColor=none;align=left;verticalAlign=middle;spacingTop=-1;spacingLeft=3;spacingRight=3;rotatable=0;labelPosition=right;points=[];portConstraint=eastwest;strokeColor=inherit;" vertex="1" parent="r_4Iz4pL5gPp644gcN3Q-1">
          <mxGeometry y="26" width="160" height="8" as="geometry" />
        </mxCell>
        <mxCell id="r_4Iz4pL5gPp644gcN3Q-4" value="&lt;div&gt;+ tocar() : void&lt;/div&gt;&lt;div&gt;+ pausar() : void&lt;/div&gt;&lt;div&gt;+ selecionarMusica(musica: String) : void&lt;/div&gt;&lt;div&gt;&lt;br&gt;&lt;/div&gt;" style="text;strokeColor=none;fillColor=none;align=left;verticalAlign=top;spacingLeft=4;spacingRight=4;overflow=hidden;rotatable=0;points=[[0,0.5],[1,0.5]];portConstraint=eastwest;whiteSpace=wrap;html=1;" vertex="1" parent="r_4Iz4pL5gPp644gcN3Q-1">
          <mxGeometry y="34" width="160" height="86" as="geometry" />
        </mxCell>
        <mxCell id="r_4Iz4pL5gPp644gcN3Q-34" style="edgeStyle=orthogonalEdgeStyle;rounded=0;orthogonalLoop=1;jettySize=auto;html=1;entryX=1;entryY=0.5;entryDx=0;entryDy=0;dashed=1;" edge="1" parent="1" source="r_4Iz4pL5gPp644gcN3Q-10" target="r_4Iz4pL5gPp644gcN3Q-18">
          <mxGeometry relative="1" as="geometry" />
        </mxCell>
        <mxCell id="r_4Iz4pL5gPp644gcN3Q-10" value="AparelhoTelefonico" style="swimlane;fontStyle=1;align=center;verticalAlign=top;childLayout=stackLayout;horizontal=1;startSize=26;horizontalStack=0;resizeParent=1;resizeParentMax=0;resizeLast=0;collapsible=1;marginBottom=0;whiteSpace=wrap;html=1;" vertex="1" parent="1">
          <mxGeometry x="574" y="260" width="160" height="110" as="geometry" />
        </mxCell>
        <mxCell id="r_4Iz4pL5gPp644gcN3Q-12" value="" style="line;strokeWidth=1;fillColor=none;align=left;verticalAlign=middle;spacingTop=-1;spacingLeft=3;spacingRight=3;rotatable=0;labelPosition=right;points=[];portConstraint=eastwest;strokeColor=inherit;" vertex="1" parent="r_4Iz4pL5gPp644gcN3Q-10">
          <mxGeometry y="26" width="160" height="8" as="geometry" />
        </mxCell>
        <mxCell id="r_4Iz4pL5gPp644gcN3Q-13" value="&lt;div&gt;+ ligar(numero: String) : void&lt;/div&gt;&lt;div&gt;+ atender() : void&lt;/div&gt;&lt;div&gt;+ iniciarCorreioVoz() : void&lt;/div&gt;" style="text;strokeColor=none;fillColor=none;align=left;verticalAlign=top;spacingLeft=4;spacingRight=4;overflow=hidden;rotatable=0;points=[[0,0.5],[1,0.5]];portConstraint=eastwest;whiteSpace=wrap;html=1;" vertex="1" parent="r_4Iz4pL5gPp644gcN3Q-10">
          <mxGeometry y="34" width="160" height="76" as="geometry" />
        </mxCell>
        <mxCell id="r_4Iz4pL5gPp644gcN3Q-33" style="edgeStyle=orthogonalEdgeStyle;rounded=0;orthogonalLoop=1;jettySize=auto;html=1;entryX=0;entryY=0.5;entryDx=0;entryDy=0;dashed=1;" edge="1" parent="1" source="r_4Iz4pL5gPp644gcN3Q-14" target="r_4Iz4pL5gPp644gcN3Q-18">
          <mxGeometry relative="1" as="geometry" />
        </mxCell>
        <mxCell id="r_4Iz4pL5gPp644gcN3Q-14" value="NavegadorInternet" style="swimlane;fontStyle=1;align=center;verticalAlign=top;childLayout=stackLayout;horizontal=1;startSize=26;horizontalStack=0;resizeParent=1;resizeParentMax=0;resizeLast=0;collapsible=1;marginBottom=0;whiteSpace=wrap;html=1;" vertex="1" parent="1">
          <mxGeometry x="94" y="260" width="160" height="110" as="geometry" />
        </mxCell>
        <mxCell id="r_4Iz4pL5gPp644gcN3Q-16" value="" style="line;strokeWidth=1;fillColor=none;align=left;verticalAlign=middle;spacingTop=-1;spacingLeft=3;spacingRight=3;rotatable=0;labelPosition=right;points=[];portConstraint=eastwest;strokeColor=inherit;" vertex="1" parent="r_4Iz4pL5gPp644gcN3Q-14">
          <mxGeometry y="26" width="160" height="8" as="geometry" />
        </mxCell>
        <mxCell id="r_4Iz4pL5gPp644gcN3Q-17" value="&lt;div&gt;+ exibirPagina(url: String) : void&lt;/div&gt;&lt;div&gt;+ adicionarNovaAba() : void&lt;/div&gt;&lt;div&gt;+ atualizarPagina() : void&lt;/div&gt;" style="text;strokeColor=none;fillColor=none;align=left;verticalAlign=top;spacingLeft=4;spacingRight=4;overflow=hidden;rotatable=0;points=[[0,0.5],[1,0.5]];portConstraint=eastwest;whiteSpace=wrap;html=1;" vertex="1" parent="r_4Iz4pL5gPp644gcN3Q-14">
          <mxGeometry y="34" width="160" height="76" as="geometry" />
        </mxCell>
        <mxCell id="r_4Iz4pL5gPp644gcN3Q-18" value="Iphone" style="swimlane;fontStyle=1;align=center;verticalAlign=top;childLayout=stackLayout;horizontal=1;startSize=26;horizontalStack=0;resizeParent=1;resizeParentMax=0;resizeLast=0;collapsible=1;marginBottom=0;whiteSpace=wrap;html=1;" vertex="1" parent="1">
          <mxGeometry x="320" y="140" width="160" height="34" as="geometry" />
        </mxCell>
        <mxCell id="r_4Iz4pL5gPp644gcN3Q-20" value="" style="line;strokeWidth=1;fillColor=none;align=left;verticalAlign=middle;spacingTop=-1;spacingLeft=3;spacingRight=3;rotatable=0;labelPosition=right;points=[];portConstraint=eastwest;strokeColor=inherit;" vertex="1" parent="r_4Iz4pL5gPp644gcN3Q-18">
          <mxGeometry y="26" width="160" height="8" as="geometry" />
        </mxCell>
      </root>
    </mxGraphModel>
  </diagram>
</mxfile>
